<?xml version="1.0" standalone="no"?><!DOCTYPE svg PUBLIC "-//W3C//DTD SVG 1.1//EN" "http://www.w3.org/Graphics/SVG/1.1/DTD/svg11.dtd"><svg class="icon" height="512" viewBox="0 0 1024 1024" version="1.1" xmlns="http://www.w3.org/2000/svg"><path d="M366.192874972181 101.89027555555549c147.8618161725103 0 295.7346790716049 0 443.59649524411526 0 1.3601282106995884 2.941190953086419 2.035359373168724 6.568659795226337 4.185328534650205 8.72967568329218 62.13507535539094 62.51618742255144 124.40961563390943 124.8873865586831 186.66482414090532 187.27791746633744 0 200.74801969514405 0 401.4946585494651 0 603.497862552757-211.48267625349794 0-422.9667333478189 0-634.4466479196707 0-25.71125612510288-16.472050178106993-33.855455299423866-40.08028572971194-31.73586463604938-69.95615777711933 1.9442238788477362-27.332363251358025-0.2306004174485597-54.93122878156378 0.6807545257613169-82.36853593547323 0.47362840230452663-14.240611408065842-3.6619898627160494-20.23484142090535-18.450795077530863-24.576204968559665-122.37977962403293-35.915669807407404-201.03523458633742-141.7681656204115-200.6624075641152-267.9245448954732 0.37282702222222225-126.43807080296295 78.23844103374483-229.91413955950614 201.9424470070782-266.8212530778601 13.43005784493827-4.009961750123456 18.895425822551438-9.79706563950617 16.895968310781893-23.084896879670783C330.54923080691356 137.92607851456785 343.57470229069963 117.59595907687242 366.192874972181 101.89027555555549zM646.0810247585183 525.7007026462551c41.06344439572017 0 80.45469055473251 0 119.85007923621399 0 85.27658670880656 0 88.44285471604937 0.39492047539094643 84.8222900780247 29.508568388477368-7.529725008065845 60.594056996872425-55.35514691423868 24.92970021925925-83.77975525662552 29.331820763127574-41.122820551111104 6.367057035061729-83.97031129020574 1.396030072098765-126.0707671440329 1.8572309069958843-7.143089577613169 0.08423129020576128-17.319886443456788 0.7870792691358024-20.835507178930037 5.301047919670782-12.159684287736622 15.62145223111111-21.99679431111111 33.044901736296296-34.373270608065845 52.37667325893004 13.29887796674897 0 22.70240397168724 0 32.10592997662551 0 67.8931815874897 0.005523363292181071 135.78498233415635 0.29826161777777777 203.66573635423865-0.15465417218106992 21.95122656395062-0.14636912724279835 30.40473408263374 9.16740222419753 30.40473408263374 31.1904325109465 0 23.176032373991767-11.031537335308641 29.678411809711925-31.890518808230443 29.59970388279835-97.96237135012345-0.38663543045267484-195.9344085860082-0.33692516082304513-293.8967799361317 0.0759462452674897-10.829934575144033 0.04418690633744857-21.82695088987654 2.71059053563786-32.43871261497942 5.379755846584361-27.32683988806584 6.876587298765433-54.598446143209884 14.037627807078188-81.61321600526749 22.01750692345679-6.237257997695474 1.8365182946502057-16.095080633415638 7.213512459588476-16.26078153218107 11.298039614156377-1.3504623249382715 32.17773369942387-0.7553199302057614 64.4369370074074-0.7553199302057614 96.2832689093004 184.04122657711935 0 363.9054096645267 0 544.0692352105349 0 0-164.2579201053498 0-326.22502528526746 0-491.37634940312745-59.45900584032921 0-117.35628070979423 0-176.58468613267488 0 0-56.41701350716048-0.8354086979423867-109.67052068872428 0.43358401843621397-162.87293675983537 0.47362840230452663-19.73083452049383-6.333916855308641-24.748810071440328-25.11197120790123-24.617630193251028-106.55258211028807 0.7359881586831275-213.1148301063374 0.15603501300411524-319.67155473909463 0.780175065020576-7.56286518781893 0.045567747160493825-15.087066832592594 6.146122503374484-22.633361930534978 9.435285343868312 7.364024109300412 4.040340248230453 14.335889424855965 10.493009414320989 22.150067642469132 11.76200213069959 112.75117656493826 18.31685351769547 185.20251370930038 83.33650535242798 222.30018326123454 189.95398698139917 2.731303147983539 7.852841760658436 5.415657707983539 15.715349407078188 8.478362653497943 24.606583466666663 10.584144908641976 0 19.968339142057616-0.005523363292181071 29.35805673876543 0 48.12644520559671 0.004142522469135802 96.2501287295473 0.2306004174485597 144.3710505718518-0.0759462452674897 20.12299331423868-0.1311798781893004 29.3815310327572 7.776895515390945 29.711551989465015 29.160596501069957 0.36730365893004113 24.001775186172843-10.035951101893001 31.715152023703695-32.66655135078189 31.382369385349797-54.714436772345664-0.810553563127572-109.44958615703705-0.2665022788477366-164.63627049086418-0.2665022788477366C651.6900001817284 480.78609319506177 649.1478722265022 501.1507336533333 646.0810247585183 525.7007026462551zM384.70028452345673 240.63578061432105c-121.07488504625513-0.10080138008230452-219.2512867239506 97.12834349300412-219.05934984954732 216.95218675358026 0.19607939687242792 118.37672207802467 98.08526618337447 216.04359349201644 217.16483624032924 216.6677335440329 120.62611177876542 0.6379484602469134 219.843667437037-96.6947594745679 220.26758556971188-216.07259114930042C603.4958937758024 338.21151653399176 505.65641725893005 240.7407245168725 384.70028452345673 240.63578061432105z"  /><path d="M20.598795462057694 751.8120065790948c29.864825320823048-34.17166784790123 60.023769736954726-68.09340350683128 89.46191524345679-102.62270912790125 13.399679346831276-15.709826043786009 26.132412576131685-16.86420897185185 41.4155588055967-2.963284406255143 15.20167662090535 13.834644206090534 30.96397461596707 27.081050221563782 46.91682864460904 40.05128807242798 14.7487608309465 11.989840866502057 17.30745887604938 24.157810199176957 4.008580909300411 39.16478826403292-27.28127214090535 30.772037741563782-54.311231252016455 61.78572262716048-80.95731661432097 93.11285837958849-13.655134899094648 16.04951288625514-26.324349450534974 15.091209355061727-41.51636018567901 1.828233249711934-19.141215489053497-16.7040314363786-39.497570902386826-32.021698686419754-59.32782596213992-47.93865085366256C20.598795462057694 765.5693236990946 20.598795462057694 758.6872130370369 20.598795462057694 751.8120065790948z"  /></svg>